<?xml version="1.0" encoding="UTF-8"?>
<!DOCTYPE svg PUBLIC "-//W3C//DTD SVG 1.1//EN" "http://www.w3.org/Graphics/SVG/1.1/DTD/svg11.dtd">
<svg xmlns="http://www.w3.org/2000/svg" version="1.1" width="212px" height="59px" style="shape-rendering:geometricPrecision; text-rendering:geometricPrecision; image-rendering:optimizeQuality; fill-rule:evenodd; clip-rule:evenodd" xmlns:xlink="http://www.w3.org/1999/xlink">
<g><path style="opacity:1" fill="#fdfcfd" d="M -0.5,-0.5 C 70.1667,-0.5 140.833,-0.5 211.5,-0.5C 211.5,19.1667 211.5,38.8333 211.5,58.5C 140.833,58.5 70.1667,58.5 -0.5,58.5C -0.5,38.8333 -0.5,19.1667 -0.5,-0.5 Z"/></g>
<g><path style="opacity:1" fill="#372c91" d="M 61.5,14.5 C 63.1667,14.5 64.8333,14.5 66.5,14.5C 66.3367,16.8568 66.5034,19.1902 67,21.5C 71.221,18.6344 74.8876,19.301 78,23.5C 80.3171,32.1588 77.1504,36.3255 68.5,36C 68,35.5 67.5,35 67,34.5C 65.5993,36.1922 63.7659,36.8588 61.5,36.5C 61.5,29.1667 61.5,21.8333 61.5,14.5 Z"/></g>
<g><path style="opacity:1" fill="#3b2e92" d="M 141.5,14.5 C 143.167,14.5 144.833,14.5 146.5,14.5C 146.5,21.8333 146.5,29.1667 146.5,36.5C 144.833,36.5 143.167,36.5 141.5,36.5C 141.5,29.1667 141.5,21.8333 141.5,14.5 Z"/></g>
<g><path style="opacity:1" fill="#34298f" d="M 93.5,20.5 C 94.8333,20.5 96.1667,20.5 97.5,20.5C 97.5,25.8333 97.5,31.1667 97.5,36.5C 95.549,36.7733 94.049,36.1066 93,34.5C 87.4122,37.9161 83.4122,36.5828 81,30.5C 79.9726,26.8201 80.8059,23.6534 83.5,21C 86.6649,18.8704 89.6649,19.0371 92.5,21.5C 93.1067,21.3764 93.44,21.0431 93.5,20.5 Z"/></g>
<g><path style="opacity:1" fill="#3a2e92" d="M 127.5,19.5 C 136.207,19.0367 139.707,23.0367 138,31.5C 135.459,36.0685 131.625,37.5685 126.5,36C 121.931,33.4586 120.431,29.6253 122,24.5C 123.352,22.251 125.185,20.5844 127.5,19.5 Z"/></g>
<g><path style="opacity:1" fill="#726bb2" d="M 93.5,20.5 C 94.9187,19.5489 96.5853,19.2155 98.5,19.5C 98.8222,25.358 98.4889,31.0247 97.5,36.5C 97.5,31.1667 97.5,25.8333 97.5,20.5C 96.1667,20.5 94.8333,20.5 93.5,20.5 Z"/></g>
<g><path style="opacity:1" fill="#352990" d="M 108.5,35.5 C 108.44,34.9569 108.107,34.6236 107.5,34.5C 106.513,37.7683 106.18,41.1016 106.5,44.5C 105.167,44.5 103.833,44.5 102.5,44.5C 102.5,36.1667 102.5,27.8333 102.5,19.5C 104.766,19.1412 106.599,19.8078 108,21.5C 112.221,18.6344 115.888,19.301 119,23.5C 121.056,32.9285 117.556,36.9285 108.5,35.5 Z"/></g>
<g><path style="opacity:1" fill="#f0eff7" d="M 68.5,23.5 C 73.3169,24.2373 74.6502,26.904 72.5,31.5C 68.9509,33.131 66.9509,31.9643 66.5,28C 66.5186,26.167 67.1852,24.667 68.5,23.5 Z"/></g>
<g><path style="opacity:1" fill="#e5e3f1" d="M 88.5,23.5 C 92.9757,23.8222 94.4757,26.1556 93,30.5C 89.1868,33.5886 86.6868,32.7552 85.5,28C 85.5572,25.7911 86.5572,24.2911 88.5,23.5 Z"/></g>
<g><path style="opacity:1" fill="#f1f0f7" d="M 109.5,23.5 C 113.976,23.8222 115.476,26.1556 114,30.5C 110.785,33.3733 108.618,32.7066 107.5,28.5C 107.437,26.4861 108.103,24.8194 109.5,23.5 Z"/></g>
<g><path style="opacity:1" fill="#f0eff7" d="M 128.5,23.5 C 132.976,23.8222 134.476,26.1556 133,30.5C 129.509,33.4456 127.342,32.6122 126.5,28C 126.519,26.167 127.185,24.667 128.5,23.5 Z"/></g>
<g><path style="opacity:1" fill="#2f258d" d="M 24.5,4.5 C 35.6909,3.02277 40.3575,7.68943 38.5,18.5C 40.808,13.8935 44.4747,12.3935 49.5,14C 51.5,16 53.5,18 55.5,20C 54.3284,20.3534 53.1618,20.1868 52,19.5C 49.9647,20.6014 47.7981,21.268 45.5,21.5C 43.0789,20.9279 40.7455,20.4279 38.5,20C 36.9644,21.5994 36.4644,23.4328 37,25.5C 40.5171,23.807 43.3505,24.6403 45.5,28C 42.4284,28.4559 39.4284,28.4559 36.5,28C 35.1328,30.3015 34.4661,32.8015 34.5,35.5C 39.0168,34.6591 42.6834,35.9925 45.5,39.5C 47.8333,38 50.1667,36.5 52.5,35C 56.6667,33.8333 58.1667,35.3333 57,39.5C 47.5572,51.3756 36.0572,54.0423 22.5,47.5C 20.5466,48.1556 18.5466,48.4889 16.5,48.5C 16.5,43.8333 16.5,39.1667 16.5,34.5C 21.682,34.7051 26.8487,35.0384 32,35.5C 33.309,33.3136 33.4757,31.1469 32.5,29C 29.3892,28.556 26.7225,27.2227 24.5,25C 26.9546,23.4597 29.6213,23.1264 32.5,24C 33.2266,25.3988 33.7266,26.8988 34,28.5C 34.8214,25.4459 34.6548,22.4459 33.5,19.5C 28.2753,16.3483 25.7753,11.6817 26,5.5C 25.6174,4.94404 25.1174,4.61071 24.5,4.5 Z"/></g>
<g><path style="opacity:1" fill="#7a73b7" d="M 108.5,35.5 C 107.833,38.5 107.167,41.5 106.5,44.5C 106.18,41.1016 106.513,37.7683 107.5,34.5C 108.107,34.6236 108.44,34.9569 108.5,35.5 Z"/></g>
<g><path style="opacity:1" fill="#32278e" d="M 178.5,3.5 C 180.857,3.33669 183.19,3.50335 185.5,4C 184,4.83333 182.833,6 182,7.5C 182.132,13.5706 179.466,17.9039 174,20.5C 173.245,23.3033 173.578,25.9699 175,28.5C 176.212,23.486 179.045,22.3193 183.5,25C 181.544,27.8103 178.877,29.3103 175.5,29.5C 175.201,31.604 175.534,33.604 176.5,35.5C 181.772,34.9678 187.105,34.9678 192.5,35.5C 192.5,40.1667 192.5,44.8333 192.5,49.5C 189.962,49.4928 187.462,49.1595 185,48.5C 180.587,49.8948 176.087,50.8948 171.5,51.5C 163.76,50.0462 157.26,46.3796 152,40.5C 151.175,38.2992 151.675,36.4659 153.5,35C 157.142,35.6512 160.475,37.1512 163.5,39.5C 164.91,39.1322 165.91,38.2989 166.5,37C 169.146,36.5026 171.813,36.3359 174.5,36.5C 174.438,33.247 173.604,30.247 172,27.5C 170.806,28.4303 169.473,29.0969 168,29.5C 166.306,28.6315 164.806,28.2982 163.5,28.5C 165.625,24.2588 168.458,23.5921 172,26.5C 172.825,24.2992 172.325,22.4659 170.5,21C 167.937,20.8458 165.437,21.3458 163,22.5C 160.234,21.3133 157.401,20.3133 154.5,19.5C 159.433,12.0635 164.6,11.7302 170,18.5C 168.666,11.1704 171.499,6.17038 178.5,3.5 Z"/></g>
</svg>
